<mxfile host="65bd71144e">
    <diagram id="hXgNOD0cTnr6svOwxgeN" name="Page-1">
        <mxGraphModel dx="4874" dy="2054" grid="1" gridSize="10" guides="1" tooltips="1" connect="1" arrows="1" fold="1" page="1" pageScale="1" pageWidth="850" pageHeight="1100" math="0" shadow="0">
            <root>
                <mxCell id="0"/>
                <mxCell id="1" parent="0"/>
                <mxCell id="2" value="" style="rounded=0;whiteSpace=wrap;html=1;labelBackgroundColor=none;fillColor=#A8DADC;strokeColor=#457B9D;fontColor=#1D3557;" vertex="1" parent="1">
                    <mxGeometry x="100" y="140" width="640" height="330" as="geometry"/>
                </mxCell>
                <mxCell id="3" value="SISTEMA" style="text;html=1;align=center;verticalAlign=middle;resizable=0;points=[];autosize=1;strokeColor=none;fillColor=none;labelBackgroundColor=none;fontColor=#1D3557;" vertex="1" parent="1">
                    <mxGeometry x="110" y="140" width="80" height="30" as="geometry"/>
                </mxCell>
                <mxCell id="4" style="edgeStyle=orthogonalEdgeStyle;rounded=0;orthogonalLoop=1;jettySize=auto;html=1;exitX=0.5;exitY=0;exitDx=0;exitDy=0;exitPerimeter=0;strokeColor=#457B9D;fontColor=#1D3557;fillColor=#A8DADC;" edge="1" parent="1" source="5" target="13">
                    <mxGeometry relative="1" as="geometry">
                        <Array as="points">
                            <mxPoint x="353" y="490"/>
                        </Array>
                    </mxGeometry>
                </mxCell>
                <mxCell id="5" value="Professor" style="shape=umlActor;verticalLabelPosition=bottom;verticalAlign=top;html=1;outlineConnect=0;strokeColor=#457B9D;fontColor=#1D3557;fillColor=#A8DADC;" vertex="1" parent="1">
                    <mxGeometry x="270" y="490" width="30" height="60" as="geometry"/>
                </mxCell>
                <mxCell id="6" style="edgeStyle=orthogonalEdgeStyle;rounded=0;orthogonalLoop=1;jettySize=auto;html=1;exitX=0.5;exitY=0;exitDx=0;exitDy=0;exitPerimeter=0;strokeColor=#457B9D;fontColor=#1D3557;fillColor=#A8DADC;" edge="1" parent="1" source="10" target="12">
                    <mxGeometry relative="1" as="geometry">
                        <Array as="points">
                            <mxPoint x="413" y="450"/>
                            <mxPoint x="495" y="450"/>
                        </Array>
                    </mxGeometry>
                </mxCell>
                <mxCell id="7" style="edgeStyle=orthogonalEdgeStyle;rounded=0;orthogonalLoop=1;jettySize=auto;html=1;strokeColor=#457B9D;fontColor=#1D3557;fillColor=#A8DADC;endArrow=block;endFill=0;" edge="1" parent="1" source="10" target="5">
                    <mxGeometry relative="1" as="geometry"/>
                </mxCell>
                <mxCell id="8" style="edgeStyle=orthogonalEdgeStyle;rounded=0;orthogonalLoop=1;jettySize=auto;html=1;strokeColor=#457B9D;fontColor=#1D3557;fillColor=#A8DADC;endArrow=block;endFill=0;" edge="1" parent="1" target="19">
                    <mxGeometry relative="1" as="geometry">
                        <mxPoint x="420" y="520" as="sourcePoint"/>
                        <Array as="points">
                            <mxPoint x="490" y="520"/>
                            <mxPoint x="490" y="520"/>
                        </Array>
                    </mxGeometry>
                </mxCell>
                <mxCell id="9" style="edgeStyle=orthogonalEdgeStyle;rounded=0;orthogonalLoop=1;jettySize=auto;html=1;strokeColor=#457B9D;fontColor=#1D3557;fillColor=#A8DADC;endArrow=block;endFill=0;" edge="1" parent="1" target="21">
                    <mxGeometry relative="1" as="geometry">
                        <mxPoint x="413" y="570" as="sourcePoint"/>
                        <Array as="points">
                            <mxPoint x="413" y="600"/>
                            <mxPoint x="200" y="600"/>
                            <mxPoint x="200" y="520"/>
                        </Array>
                    </mxGeometry>
                </mxCell>
                <mxCell id="10" value="UsuÃ¡rio" style="shape=umlActor;verticalLabelPosition=bottom;verticalAlign=top;html=1;outlineConnect=0;strokeColor=#457B9D;fontColor=#1D3557;fillColor=#A8DADC;" vertex="1" parent="1">
                    <mxGeometry x="398" y="490" width="30" height="60" as="geometry"/>
                </mxCell>
                <mxCell id="11" value="Visualizar moedas" style="ellipse;whiteSpace=wrap;html=1;strokeColor=#457B9D;fontColor=#1D3557;fillColor=#A8DADC;" vertex="1" parent="1">
                    <mxGeometry x="540" y="250" width="90" height="60" as="geometry"/>
                </mxCell>
                <mxCell id="12" value="Fazer login" style="ellipse;whiteSpace=wrap;html=1;strokeColor=#457B9D;fontColor=#1D3557;fillColor=#A8DADC;" vertex="1" parent="1">
                    <mxGeometry x="450" y="370" width="90" height="60" as="geometry"/>
                </mxCell>
                <mxCell id="13" value="Distribuir moedas" style="ellipse;whiteSpace=wrap;html=1;strokeColor=#457B9D;fontColor=#1D3557;fillColor=#A8DADC;" vertex="1" parent="1">
                    <mxGeometry x="308" y="190" width="90" height="60" as="geometry"/>
                </mxCell>
                <mxCell id="14" value="Visualizar Transacoes" style="ellipse;whiteSpace=wrap;html=1;strokeColor=#457B9D;fontColor=#1D3557;fillColor=#A8DADC;" vertex="1" parent="1">
                    <mxGeometry x="440" y="210" width="90" height="60" as="geometry"/>
                </mxCell>
                <mxCell id="15" value="Trocar moedas" style="ellipse;whiteSpace=wrap;html=1;strokeColor=#457B9D;fontColor=#1D3557;fillColor=#A8DADC;" vertex="1" parent="1">
                    <mxGeometry x="630" y="200" width="90" height="60" as="geometry"/>
                </mxCell>
                <mxCell id="16" value="Cadastrar vantagem" style="ellipse;whiteSpace=wrap;html=1;strokeColor=#457B9D;fontColor=#1D3557;fillColor=#A8DADC;" vertex="1" parent="1">
                    <mxGeometry x="190" y="320" width="90" height="60" as="geometry"/>
                </mxCell>
                <mxCell id="17" style="edgeStyle=orthogonalEdgeStyle;rounded=0;orthogonalLoop=1;jettySize=auto;html=1;exitX=0.5;exitY=0;exitDx=0;exitDy=0;exitPerimeter=0;strokeColor=#457B9D;fontColor=#1D3557;fillColor=#A8DADC;" edge="1" parent="1" source="19" target="11">
                    <mxGeometry relative="1" as="geometry">
                        <Array as="points">
                            <mxPoint x="615" y="360"/>
                            <mxPoint x="585" y="360"/>
                        </Array>
                    </mxGeometry>
                </mxCell>
                <mxCell id="18" style="edgeStyle=orthogonalEdgeStyle;rounded=0;orthogonalLoop=1;jettySize=auto;html=1;strokeColor=#457B9D;fontColor=#1D3557;fillColor=#A8DADC;" edge="1" parent="1" source="19" target="14">
                    <mxGeometry relative="1" as="geometry">
                        <Array as="points">
                            <mxPoint x="615" y="360"/>
                            <mxPoint x="485" y="360"/>
                        </Array>
                    </mxGeometry>
                </mxCell>
                <mxCell id="19" value="Pessoa" style="shape=umlActor;verticalLabelPosition=bottom;verticalAlign=top;html=1;outlineConnect=0;strokeColor=#457B9D;fontColor=#1D3557;fillColor=#A8DADC;" vertex="1" parent="1">
                    <mxGeometry x="600" y="500" width="30" height="60" as="geometry"/>
                </mxCell>
                <mxCell id="20" style="edgeStyle=orthogonalEdgeStyle;rounded=0;orthogonalLoop=1;jettySize=auto;html=1;exitX=0.5;exitY=0;exitDx=0;exitDy=0;exitPerimeter=0;strokeColor=#457B9D;fontColor=#1D3557;fillColor=#A8DADC;" edge="1" parent="1" source="21" target="16">
                    <mxGeometry relative="1" as="geometry"/>
                </mxCell>
                <mxCell id="21" value="Empresa" style="shape=umlActor;verticalLabelPosition=bottom;verticalAlign=top;html=1;outlineConnect=0;strokeColor=#457B9D;fontColor=#1D3557;fillColor=#A8DADC;" vertex="1" parent="1">
                    <mxGeometry x="135" y="490" width="30" height="60" as="geometry"/>
                </mxCell>
                <mxCell id="22" style="edgeStyle=orthogonalEdgeStyle;rounded=0;orthogonalLoop=1;jettySize=auto;html=1;exitX=0;exitY=0.3333333333333333;exitDx=0;exitDy=0;exitPerimeter=0;entryX=1;entryY=0.3333333333333333;entryDx=0;entryDy=0;entryPerimeter=0;strokeColor=#457B9D;fontColor=#1D3557;fillColor=#A8DADC;endArrow=blockThin;endFill=0;" edge="1" parent="1" source="24" target="19">
                    <mxGeometry relative="1" as="geometry"/>
                </mxCell>
                <mxCell id="23" style="edgeStyle=orthogonalEdgeStyle;rounded=0;orthogonalLoop=1;jettySize=auto;html=1;exitX=0.5;exitY=0;exitDx=0;exitDy=0;exitPerimeter=0;strokeColor=#457B9D;fontColor=#1D3557;fillColor=#A8DADC;" edge="1" parent="1" source="24" target="15">
                    <mxGeometry relative="1" as="geometry">
                        <Array as="points">
                            <mxPoint x="675" y="500"/>
                        </Array>
                    </mxGeometry>
                </mxCell>
                <mxCell id="24" value="Aluno" style="shape=umlActor;verticalLabelPosition=bottom;verticalAlign=top;html=1;outlineConnect=0;strokeColor=#457B9D;fontColor=#1D3557;fillColor=#A8DADC;" vertex="1" parent="1">
                    <mxGeometry x="730" y="500" width="30" height="60" as="geometry"/>
                </mxCell>
            </root>
        </mxGraphModel>
    </diagram>
</mxfile>